<svg xmlns="http://www.w3.org/2000/svg" width="736" height="256"><defs><style>.grey{fill:#4d4d4d}.baclk{fill:none;stroke:#000;stroke-miterlimit:10;stroke-width:3px}</style></defs><path fill="#fff" d="M328.06 230.32v-29.96H172.24v29.96H58.39v-29.96H28.42V26.58h683.16v173.78H441.91v29.96H328.06z"/><path class="grey" d="M708.58 29.58v167.78H438.91v30H331.06v-30H169.24v30H61.39v-30h-30V29.58h677.19m6-6H25.42v179.78h30v30h119.82v-30h149.82v30h119.85v-30h269.67V23.58z"/><path class="grey" d="M181.24 179.4h-30v30H91.35v-30h-30V59.54h119.89zm-59.93-89.89h-30v59.92h30zM480.87 179.4H421v30h-60V59.54h119.87zm-30-89.89H421v59.92h30zM331.06 179.4h-29.97V89.51h-29.96v89.89H211.2V59.54h119.86V179.4zM690.62 179.4h-29.97V89.51h-29.96v89.89h-29.96V89.51h-29.97v89.89h-59.92V59.54h179.78V179.4z"/><path class="baclk" d="M175.24 173.4h-30v30H85.35v-30h-30V53.54h119.89zm-59.93-89.89h-30v59.92h30zM474.87 173.4H415v30h-60V53.54h119.87zm-30-89.89H415v59.92h30zM325.06 173.4h-29.97V83.51h-29.96v89.89H205.2V53.54h119.86V173.4zM684.62 173.4h-29.97V83.51h-29.96v89.89h-29.96V83.51h-29.97v89.89h-59.92V53.54h179.78V173.4z"/></svg>